<?xml version="1.0"?>
<svg xmlns="http://www.w3.org/2000/svg" version="1.2" baseProfile="tiny" width="800" height="439" viewBox="0 0 800 439" stroke-linecap="round" stroke-linejoin="round">
<g id="JEJU8">
<path d="M 216.59 320.6 218.43 318.9 218.46 316.4 218.56 316.18 219.71 313.61 220.82 311.07 219.83 306.97 219.21 303.29 220.55 300.22 220.41 297.06 218.75 294.73 220.6 291.5 220.77 288.78 220.49 283.66 218.43 281.78 216.82 279.56 219.75 274.96 220.69 267.76 226.16 259.12 227.75 255.97 231.32 253.84 230.63 256.22 234.5 259.96 238.27 261.72 243.73 265.58 246.98 265.91 247.36 266.06 248.62 263.94 249.78 258.6 254.06 253.31 258.92 253.56 260.71 251.28 264.47 249.86 265.59 247.09 269.36 245.05 270.14 241.65 269.22 236.33 269.87 234.41 273.22 230.26 273.95 225.55 279.45 223.1 281.15 220.78 278.13 217.03 279.02 214.46 282.57 212.81 283.91 209.12 283.11 205.09 284.63 203.5 291.43 200.97 305.58 201.14 310.04 199.82 317.51 201.47 319.86 203.73 321.55 202.43 327.94 200.28 334.82 204.77 336.55 203.3 343.18 200.04 352.44 201.18 354.8 198.89 360.96 199.52 364.89 199.07 370.08 196.96 373.04 197.44 377.65 196.77 383.4 192.96 385.99 194.85 388.75 195.24 391.52 195.72 395.52 198.88 401.25 200.95 402.49 203.05 402.74 203.67 404.31 206.78 404.41 207.16 406.66 210.37 408.99 211.63 414.43 215.53 418.8 219.98 425.23 221.8 427.62 224.18 429.19 229.11 435.81 237.36 436.09 240.8 440.66 243.63 439.97 247.78 441.73 252 442.26 258.17 444.21 259.93 445.62 262.09 445.36 264.78 444.25 268.19 445.05 269.47 450.74 271.75 454.16 271.62 454.65 272.01 455.66 276.93 460.17 278.36 460.35 280.56 462.55 283.53 463.08 288.65 462.09 291.71 464.3 293.1 463.01 302.56 463.49 304.13 459.67 306.23 459.03 312.06 457.41 313.72 444.29 317.25 440.07 319.57 436.38 318.87 432.78 316.46 430.15 312.32 427.16 311.28 423.1 312.25 419.12 310.83 415.82 311.88 413.72 310.97 408.09 315.14 409.26 317.62 401.39 314.9 397.53 316.28 393.35 314.19 386.24 316.84 382.07 313.96 375.35 316.36 369.42 315.22 363.18 315.12 361.54 318.2 358.88 318.36 357.27 321.67 351.97 324.73 344.71 324.07 342.25 322.5 339.26 323.79 335.94 322.42 332.22 323.42 328.33 325.92 324.01 327.04 320.94 326.93 319.15 328.51 315.92 328.88 312.66 325.48 308.27 323.56 308.93 322.07 306.19 316.54 300.45 314.48 295.57 314.43 293.18 316.55 287.2 317.41 284.2 316.89 279.11 321.64 276.4 319.54 270.84 318.32 264.63 312.04 262.39 312.59 260.43 310.55 256.96 310.08 252.3 312.5 244.42 314.61 233.97 320.29 231.98 322.11 227.94 321.01 224.09 321.78 218.51 323.9 216.59 320.6 Z"/>
<path d="M 82.1 149.81 84.14 150.97 84.38 154.66 81.88 156.52 78.68 156.74 75.81 155.53 77.22 150.38 82.1 149.81 Z M 148.49 116.27 150.48 117.61 149.73 121.52 149.7 121.97 150.13 123.59 150.35 123.64 151.77 125.85 150.59 129.43 152.1 132.83 154.1 134.82 153.45 141.32 152.59 144.2 154.35 148.53 156.59 150.74 157.08 153.73 159.22 155.43 160.44 163.14 165.94 168.34 166.72 170.24 171.7 171.8 173.3 173.73 172.88 181.91 181.19 190.25 183.26 193.37 189.24 196.58 193.67 200.35 199.06 202.41 203.58 205.77 216.12 211.14 223.48 212.64 220.32 214.29 217.08 217.9 209.85 217.27 205.12 218.37 198.52 218.33 190.91 215.72 185.83 219.77 184.22 222.69 179.06 226.16 173.96 231.37 170.92 233.02 168.37 231.39 162.06 231.94 159.66 233.3 156.4 232.14 154.15 234.38 150.81 236.13 147.09 236.64 142.14 231.75 140.26 227.23 139.52 223.45 136.2 220.11 134 214.36 129.92 212.97 127.99 213.34 123.24 217.12 121.68 220.84 117.22 217.26 113.39 216.2 111.66 214.46 108 216.53 103.11 217.6 98.54 211.83 91.96 216.15 88.55 210.76 88.16 207.65 82.42 206.86 82.5 204.49 80.81 201.61 80.77 199.38 77.78 195.74 70.54 193.4 70.48 193.34 69.36 192.44 69.36 192.4 68.94 187.44 68.94 187.32 66.87 185.37 69.91 181.61 68.43 179.69 70.1 176.86 72.06 176.9 74.7 174.28 76.1 170.86 80.95 170.83 82.75 171.69 86.99 171.66 90.76 166.99 94.59 165.61 96.53 161.99 102.67 160.13 104.6 153.79 108.74 153.71 110.74 152.17 107.95 148.99 112.12 144.96 114.77 144.52 113.98 139.51 115.85 136.55 115.4 131.43 114.26 129.86 115.2 126.6 120.57 126.35 122.82 125.2 125.19 127.32 129.3 120.02 135.24 119.72 135.79 118.03 140.57 119.71 143.04 119.26 145.77 116.35 148.49 116.27 Z" fill-rule="evenodd"/>
<path d="M 267.57 73.51 267.29 78.41 267.27 78.59 265.83 84.15 268.46 89.03 268.43 89.27 271.18 90.68 271.61 90.68 274.69 90.58 280.41 89.16 280.57 89.09 280.63 89.13 280.98 89.09 288.66 86.08 289 85.99 289.1 88.58 291.32 93.17 291.01 97.1 293.47 101.02 293.19 105.89 291.8 108.28 292.38 113.53 294.02 115.39 296.33 121.05 295.02 123.77 294.94 124.37 292.41 126.8 294.1 132.69 293.62 137.17 295.37 146.95 295.33 147.06 298.24 154.01 301.9 156.21 303.57 159.19 303.4 162.68 304.1 163.61 306.87 166.15 311.73 167.19 312.67 168.62 317.46 169.73 321.07 172.71 330.3 172 336.06 170.54 342.39 173.97 347.14 177.15 353.7 177.47 356.22 178.85 364.67 187.55 367.57 188.68 369.98 191.26 368.89 193.1 372.57 195.58 373.04 197.44 370.08 196.96 364.89 199.07 360.96 199.52 354.8 198.89 352.44 201.18 343.18 200.04 336.55 203.3 334.82 204.77 327.94 200.28 321.55 202.43 319.86 203.73 317.51 201.47 310.04 199.82 305.58 201.14 291.43 200.97 284.63 203.5 283.11 205.09 283.91 209.12 282.57 212.81 279.02 214.46 278.13 217.03 272.91 218.23 267 217.9 264.38 216.59 256.16 217.18 254.26 215.78 251.11 216.3 249.35 214.86 243.92 214.68 239.27 215.79 229.23 212.97 223.48 212.64 216.12 211.14 203.58 205.77 199.06 202.41 193.67 200.35 189.24 196.58 183.26 193.37 181.19 190.25 172.88 181.91 173.3 173.73 171.7 171.8 166.72 170.24 165.94 168.34 160.44 163.14 159.22 155.43 157.08 153.73 156.59 150.74 154.35 148.53 152.59 144.2 153.45 141.32 154.1 134.82 152.1 132.83 150.59 129.43 151.77 125.85 150.35 123.64 150.13 123.59 149.7 121.97 149.73 121.52 150.48 117.61 148.49 116.27 153.16 113.83 156.79 110.78 156.76 109.08 159.19 106.8 161.07 101.57 159.11 100.37 158.77 97.66 164.14 94.31 169.07 96.4 173.98 96.71 178.63 95.76 184.36 96.92 187.47 96.43 189.44 93.66 196.01 90.57 200.94 90.24 202.49 86.3 208.23 84.23 212.41 85.5 216.93 85.66 221.29 83.46 225.6 79.84 227.75 80.1 230.32 77.11 233.34 75.2 238.76 75.24 240.04 78.38 242.07 79.91 248.24 80.67 249.9 78.46 252.04 79.31 255.41 78.31 255.56 75.92 257.63 74.18 260.66 73.92 265.36 75.09 267.57 73.51 Z"/>
<path d="M 650.13 116.18 640.81 118.36 631.31 122.47 627.28 121.22 623.12 121.24 617.23 127.92 613.37 128.36 610.29 131.96 605.2 135.84 596.74 140.48 586.39 142.45 577.52 141.63 574.94 140.78 569.8 137.7 568.25 135.39 566.79 132.73 561.95 127.22 559.01 122.87 557.07 110.95 559.48 107.62 563.28 105.98 560.77 97.33 562.5 92.3 562.61 87.81 565.3 85.34 564.9 84.05 568.65 80.89 566.53 77.46 569.05 70.73 570.84 58.46 563.11 53.26 557.41 46.44 550.75 39.98 550.63 37.44 543.54 30.66 542.77 25.65 543.3 21.62 542.63 15.22 543.01 13.16 549.77 11.96 553.52 12.8 556.52 8.9 562.57 8.52 566.73 6.19 568.7 7.61 572.96 7.63 573.97 11.52 585.25 7.65 591.56 9.24 595.69 9.3 599.12 1.65 601.08 1 604.02 2.7 606.98 1.64 617.86 3.7 625.58 6.8 627.67 6.94 630.48 10.66 634.53 10.82 635.48 9.2 642.03 10.14 642.73 8.85 649.17 5.89 657.51 7.76 659.39 7.64 658.58 11.71 662.24 15.43 660.4 18.46 661.59 22.85 664.06 25.3 668.43 25.35 669.78 27.53 672.89 28.8 675.44 31.69 680.01 33.39 683.67 33.42 683.42 35.6 692.92 40.67 696.9 39.92 698.78 37.44 703.75 36.14 710.02 36.7 711.77 36.16 715.72 38.77 719.64 37.98 723.94 38.99 729.14 42.96 731.42 45.75 732.02 49.86 729.27 52.02 730.53 55.37 737.1 54.31 742.06 56.73 743.56 61.32 742.03 64.62 742.22 67.86 739.75 68.56 741.15 75.52 737.95 76.59 735.79 75.35 733.09 78.17 732.61 81.43 720.72 83.04 718.75 84.84 715.9 83.22 713.38 86.28 708.77 88.17 704.36 88.78 698.74 94.56 690.02 96.4 687.07 100.02 679.31 101.17 669.8 104.88 661.96 109.26 657.33 109.97 657.43 111.71 654.86 116.07 651.8 114.99 650.13 116.18 Z"/>
<path d="M 543.01 13.16 542.63 15.22 543.3 21.62 542.77 25.65 543.54 30.66 550.63 37.44 550.75 39.98 557.41 46.44 563.11 53.26 570.84 58.46 569.05 70.73 566.53 77.46 568.65 80.89 564.9 84.05 565.3 85.34 562.61 87.81 562.5 92.3 560.77 97.33 563.28 105.98 559.48 107.62 557.07 110.95 559.01 122.87 561.95 127.22 566.79 132.73 568.25 135.39 563.54 137.62 554.19 140.07 546.24 140.06 537.11 142.67 525.61 148.38 514.47 156.53 506.86 161 502.94 159.14 499.24 159.33 496.24 161.5 493.93 161.78 492.43 166.01 487.32 167.25 483.18 167.08 475.47 168.1 473.25 167.1 468.91 168.69 466.24 170.71 464.86 175.69 461.3 175.57 457.81 177.48 447.47 178.4 434.22 184.28 432.77 186.51 430.44 186.03 423.44 186.59 416.18 188.47 412.96 187.87 406.84 188.54 401.78 187.17 401.52 184.15 402.43 180.65 405.43 179.81 407.34 181.34 410.68 179.91 413.79 179.7 418.58 176.46 419.63 174.45 422.15 173.77 427.5 170.47 436.71 168.57 438.7 166.72 443.68 167.56 447.09 166.08 449.76 162.78 451.84 158.21 454.2 158.75 456.07 156.99 455.65 153.91 461.39 144.65 465.78 139.93 473.56 135.1 476.29 134.85 477.36 130.81 479.07 129.89 482.02 120.86 479.41 117.9 479.31 114.31 480.9 104.59 480.29 100.25 480.17 100.05 479.09 99.17 478.67 98.87 476.79 94.95 476.68 94.47 476.95 89.44 476.83 89.05 476.7 88.76 476.59 88.37 474.05 83.27 469.15 77.92 469.01 77.87 468.85 77.8 468.74 77.7 468.6 76.53 468.64 76.35 468.5 76.17 468.26 75.91 463.12 70.67 462.26 68.57 462.17 68.38 460.43 65.19 459.39 57.92 459.58 54.33 461.15 51.38 461.16 51.36 456.55 50.16 452.28 48.14 444.94 45.53 441.06 45.02 441.32 42.75 439.75 37.68 442.36 36.19 443.76 30.93 452.39 29.9 453.44 27.7 458.41 28.25 461.86 27.63 466.98 27.84 472.95 29.54 474.94 29.38 474.3 24.66 474.71 20.84 478.86 20.12 480.49 15.76 483.01 14.54 483.83 11.75 488.38 13.37 487 17.06 489.97 17.34 493.33 15.06 495.53 18.18 497.48 18.69 502.71 22.63 508.41 22.49 512.25 19.97 512.97 16.96 515.99 13.85 518.96 14.28 520.58 16.62 525.95 17.69 529.65 15.35 531.87 15.98 535.55 13.67 543.01 13.16 Z"/>
<path d="M 68.94 187.32 68.94 187.44 69.36 192.4 69.36 192.44 70.48 193.34 70.54 193.4 77.78 195.74 80.77 199.38 80.81 201.61 82.5 204.49 82.42 206.86 88.16 207.65 88.55 210.76 91.96 216.15 98.54 211.83 103.11 217.6 108 216.53 111.66 214.46 113.39 216.2 117.22 217.26 121.68 220.84 123.24 217.12 127.99 213.34 129.92 212.97 134 214.36 136.2 220.11 139.52 223.45 140.26 227.23 142.14 231.75 147.09 236.64 143.3 247.76 138.41 251.04 136.68 254.17 131.29 256.11 130.55 258.4 125.28 260.15 122.08 260.31 120.04 261.59 113.01 262.69 105.22 264.86 99.17 269.16 96.65 269.91 95.28 274.18 95.56 279.73 96.77 284 90.85 280.21 88.54 277.18 85.06 275.28 81.93 272.4 75.26 270.34 63.45 264.98 59.96 264.19 56.55 262.25 46.21 259.5 45.9 264.02 42.54 265.31 37.84 265.87 35 267.48 29.55 266.87 25.97 269.01 26.92 271.89 23.71 274.78 18.07 271.88 16.85 265.38 18.18 262.98 22.95 259.03 18.84 250.2 21.13 248.76 20.75 245.75 21.89 242.71 23.65 242.01 22.73 238.89 20.37 235.35 18.04 234.12 18.63 230.25 20.89 227.51 18.36 224.97 19.24 222.22 21.84 220.97 23.96 217.78 30.13 215.9 35.8 211.88 35.12 210.42 37.33 201.43 41.89 200.27 45.46 196.76 51.51 194.16 54.07 195.08 59.7 191.05 61.18 187.44 66.87 185.37 68.94 187.32 Z"/>
<path d="M 71.34 63.42 75.1 64.84 71.64 66.59 75.11 69.72 74.48 73.18 69.48 73.07 67.46 74.34 60.7 74.71 58.25 78.5 58.65 83.74 63.9 84.77 63.71 88.33 56.44 89.11 54.28 83.35 52.74 82.97 51.39 78.3 46.69 75.17 45.93 72.64 39.05 70.05 40.1 66.53 43.75 67.64 49.16 65.19 56.04 67.87 59.78 68.55 64.75 66.54 65.68 63.98 71.34 63.42 Z M 20.6 53.04 30.61 54.7 34.26 57.05 30.7 58.2 36.44 61.27 35.43 63.62 37.31 65.99 33.63 67.39 25 61.68 22.14 58.5 22.62 55.73 20.6 53.04 Z" fill-rule="evenodd"/>
<path d="M 781.66 40.64 784.05 41.21 787.05 44.73 787.66 47.33 786.42 49.78 788.94 51.79 792.91 50.87 795.76 55.53 796.64 61.41 799 65.36 798.06 66.82 794.8 67.49 795.6 69.44 792.99 73.49 788.24 71.14 785.23 73.04 776.91 70.95 773.97 68.11 772.43 61.58 770.78 58.29 773.01 56.78 772.71 53.99 773.98 52.2 778.6 50.02 779.66 46.21 777.13 45.04 777.97 42.4 781.66 40.64 Z"/>
<path d="M 81.93 272.4 85.06 275.28 88.54 277.18 90.85 280.21 96.77 284 95.56 279.73 95.28 274.18 96.65 269.91 99.17 269.16 105.22 264.86 113.01 262.69 120.04 261.59 122.08 260.31 125.28 260.15 130.55 258.4 133.35 254.88 134.69 256.71 139.78 258.73 144.5 261.63 143.94 264.52 146.13 273.33 152.97 277.33 155.1 282.13 149.62 286.28 145.87 290.78 147.18 297.74 145.13 302.03 143.85 307.05 140.97 312.07 136.32 316.52 135.98 324.44 139.53 327.65 141.45 332.07 141.14 335.11 144.55 337.18 144.87 340.92 143.27 342.94 142.38 346.98 140.45 349.35 143.6 352.16 144.76 357.25 141.77 359.02 138.54 357.83 138.36 354.68 135.39 353.4 127.94 354.54 125.24 357.34 121.43 358.39 117.45 357.23 114.4 355.15 115.22 351.03 116.64 349.49 115.22 345.05 111.39 343.64 108.13 343.71 102.08 338.61 101.86 335.08 97.38 334.04 93.87 331.53 94.06 326.81 91 326.31 91.19 324.26 88.19 319.88 84.39 319.49 81.67 317.6 81.4 315.97 78.52 314.23 75.84 314.46 72.6 312.47 65.73 312.98 56.89 309.88 49.8 304.9 47 301.69 38 297.17 35.94 294.28 33.7 288.67 28.51 285.02 27.19 282.07 24.67 279.6 23.96 274.61 26.92 271.89 25.97 269.01 29.55 266.87 35 267.48 37.84 265.87 42.54 265.31 45.9 264.02 46.21 259.5 56.55 262.25 59.96 264.19 63.45 264.98 75.26 270.34 81.93 272.4 Z M 124.49 379.03 129.4 383.4 122.72 389.32 119.78 386.22 116.35 383.94 118.33 381.15 121.47 379.28 124.49 379.03 Z M 119.09 438 117.12 433.92 119.05 430.17 120.95 429.23 121.45 435 119.09 438 Z" fill-rule="evenodd"/>
<path d="M 492.43 166.01 495.61 168.89 502.25 171.89 505.37 172.37 506.42 173.88 510.3 174.3 511.59 175.94 512.53 181.52 516.24 181.91 519.73 184.98 523.11 183.18 526.64 183.58 533.26 186.34 535.16 183.78 539.28 184.08 543.65 186.05 550.63 188.19 557.54 189.02 559.93 190.66 564.68 192.28 566.94 194.59 571.49 195.22 575.07 200.44 577.47 202.84 578.46 206.65 585.37 211.51 587.61 217.21 591.71 219.36 592.15 222.17 594.49 225.39 594.98 230.97 593 231.75 595.76 234.84 597.08 240.49 599.72 240.7 605.07 247.47 608.46 247.4 610.97 251.08 608.58 255.67 603.85 257.47 601.2 259.43 598.88 265.15 594.94 266.47 590.46 269.71 587.04 269.33 585.14 270.48 584.65 274.05 579.4 278.35 574.06 277.78 569.58 275.48 567.51 277.77 560.62 278.1 557.83 280.19 555.46 279.22 548.07 282.28 542.75 283.1 536.98 285.85 523.9 287.09 519.07 286.05 516.05 286.45 515.11 288.53 509.42 285.67 505.34 285.87 502.86 287.12 500.43 285.5 500.83 282.81 498.01 282.76 497.9 286.13 496.19 287.82 492.09 286.74 483.3 289.76 480.52 291.75 480.37 294.34 478.73 296.16 478.78 298.75 474.48 299.63 472.1 301.74 467.81 301.67 465.6 304.46 463.01 302.56 464.3 293.1 462.09 291.71 463.08 288.65 462.55 283.53 460.35 280.56 460.17 278.36 455.66 276.93 454.65 272.01 454.16 271.62 450.74 271.75 445.05 269.47 444.25 268.19 445.36 264.78 445.62 262.09 444.21 259.93 442.26 258.17 441.73 252 439.97 247.78 440.66 243.63 436.09 240.8 435.81 237.36 429.19 229.11 427.62 224.18 425.23 221.8 418.8 219.98 414.43 215.53 408.99 211.63 406.66 210.37 404.41 207.16 404.31 206.78 402.74 203.67 402.49 203.05 401.25 200.95 395.53 198.88 391.52 195.72 388.75 195.24 384.33 194.13 385.15 192.63 396.01 186.67 398.03 187.94 400.88 187.17 406.84 188.54 412.96 187.87 416.18 188.47 423.44 186.59 430.44 186.03 432.77 186.51 434.22 184.28 447.47 178.4 457.81 177.48 461.3 175.57 464.86 175.69 466.24 170.71 468.91 168.69 473.25 167.1 475.47 168.1 483.18 167.08 487.32 167.25 492.43 166.01 Z"/>
<path d="M 682.11 222.34 681.71 219.66 678.71 216.49 676.63 211.38 672.84 206.88 670.03 202 657.47 196.26 653.62 192.63 650.05 190.5 648.15 188.12 645.56 188.73 641.84 187.18 638.78 183.49 637.01 182.99 634.56 178.26 639.69 175.69 640.05 173.39 642.8 166.67 644.12 165.87 647.41 157.52 648.73 151.46 650.49 149.62 651.58 142.19 653.76 137.39 655.18 131.63 654.08 130.78 649.21 131.91 649.82 127.44 646.15 122.12 641.34 122.1 642.02 118.16 650.13 116.18 651.8 114.99 654.86 116.07 657.43 111.71 657.33 109.97 661.96 109.26 669.8 104.88 679.31 101.17 687.07 100.02 690.02 96.4 698.74 94.56 704.36 88.78 708.77 88.17 713.38 86.28 715.92 83.24 719.23 85.02 720.18 83.37 729 80.94 732.65 81.44 734.45 85.14 736.18 86.19 739.98 84.72 742.04 90.06 743.35 91.35 747.38 92.34 751.86 94.85 750.43 98.54 747.43 98.7 746.8 101.59 750.95 100.81 753.48 107.95 758.65 105 759.25 101.55 762.17 97.96 759.21 96.53 758.17 94.4 759.6 91.64 758.81 90.15 765.27 90.14 764.4 92.16 765.6 94.53 765.75 99.13 768.3 101.94 772.51 102.5 774.21 103.64 773.27 106.96 769.53 106.32 764.31 102.37 760.24 103.73 754.46 109.97 752.19 114.09 751.03 118.25 751.92 123.72 755.88 129.02 758.86 128.93 761.85 130.19 764.65 132.65 759.13 138.41 753.79 134.85 756.21 132.21 756.04 130.21 753.06 127.32 747.37 127.37 745.7 129.55 746.74 134.86 744.24 137.86 744.43 139.82 741.9 141.84 741.28 147.19 739.07 149.22 738.28 154.22 733.65 157.96 736.96 163.26 736.26 169.3 728.61 172.07 722.75 172.83 720.48 174.47 715.57 176.02 711.69 178.33 712.3 181.13 704.59 187.42 703.29 192.93 699.17 195.82 699.08 198.86 700.12 205 695.09 210.88 691.63 212.14 690.41 215.46 688.44 216.55 687.04 219.89 682.11 222.34 Z"/>
<path d="M 144.55 337.18 141.14 335.11 141.45 332.07 139.53 327.65 135.98 324.44 136.32 316.52 140.97 312.07 143.85 307.05 145.13 302.03 147.18 297.74 145.87 290.78 149.62 286.28 155.1 282.13 152.97 277.33 146.13 273.33 143.94 264.52 144.5 261.63 139.78 258.73 134.69 256.71 133.35 254.88 136.68 254.17 138.41 251.04 143.3 247.76 147.09 236.64 150.81 236.13 154.15 234.38 156.4 232.14 159.66 233.3 162.06 231.94 168.37 231.39 170.92 233.02 173.96 231.37 179.06 226.16 184.22 222.69 185.83 219.77 190.91 215.72 198.52 218.33 205.12 218.37 209.85 217.27 217.08 217.9 220.32 214.29 223.48 212.7 229.23 212.97 239.27 215.79 243.92 214.68 249.35 214.86 251.11 216.3 254.26 215.78 256.16 217.18 264.38 216.59 267 217.9 278.87 218.15 281.15 220.78 279.45 223.1 273.95 225.55 273.22 230.26 269.87 234.41 269.22 236.33 270.14 241.65 269.36 245.05 265.59 247.09 264.47 249.86 260.71 251.28 258.92 253.56 254.12 253.28 249.79 258.6 248.63 263.94 247.36 266.06 246.98 265.91 243.74 265.58 238.27 261.72 234.5 259.97 230.63 256.22 231.32 253.84 227.75 255.97 226.16 259.12 220.69 267.76 219.75 274.96 216.82 279.56 218.43 281.78 220.49 283.66 220.77 288.78 220.6 291.5 218.75 294.73 220.41 297.06 220.55 300.22 219.21 303.29 219.83 306.97 220.82 311.07 219.71 313.61 218.56 316.18 218.46 316.4 218.43 318.9 216.59 320.6 217.19 322.06 214.07 323.58 211.33 320.62 206.89 318.56 200.15 320.53 196.66 318.91 193 319.58 187.52 319.58 184.36 315.48 176.57 314.55 170.66 316.41 164.82 319.43 163.97 322.44 160.9 323.38 158.88 327.34 151.76 328.63 145.25 335 144.55 337.18 Z"/>
<path d="M 610.97 251.08 608.46 247.4 605.07 247.47 599.72 240.7 597.08 240.49 595.76 234.84 593 231.75 594.98 230.97 594.49 225.39 592.15 222.17 591.71 219.36 587.61 217.21 585.37 211.51 578.46 206.65 577.47 202.84 575.07 200.44 571.49 195.22 566.94 194.59 564.68 192.28 559.93 190.66 557.54 189.02 550.63 188.19 543.65 186.05 539.28 184.08 535.16 183.78 533.26 186.34 526.64 183.58 523.11 183.18 519.73 184.98 516.24 181.91 512.53 181.52 511.59 175.94 510.3 174.3 506.42 173.88 505.37 172.37 502.25 171.89 495.61 168.89 492.43 166.01 493.93 161.78 496.24 161.5 499.24 159.33 502.94 159.14 506.86 161 514.47 156.53 525.61 148.38 537.11 142.67 546.24 140.06 554.19 140.07 563.54 137.62 568.25 135.39 569.8 137.7 574.94 140.78 577.52 141.63 586.39 142.45 596.74 140.48 605.2 135.84 610.29 131.96 613.37 128.36 617.23 127.92 623.12 121.24 627.28 121.22 631.31 122.47 634.01 121 642.02 118.16 641.34 122.1 646.15 122.12 649.82 127.44 649.21 131.91 654.08 130.78 655.18 131.63 653.76 137.39 651.58 142.19 650.49 149.62 648.73 151.46 647.41 157.52 644.12 165.87 642.8 166.67 640.05 173.39 639.69 175.69 634.56 178.26 637.01 182.99 638.78 183.49 641.84 187.18 645.56 188.73 648.15 188.12 650.05 190.5 653.62 192.63 657.47 196.26 670.03 202 672.84 206.88 676.63 211.38 678.71 216.49 681.71 219.66 682.11 222.34 679.64 223.45 675.44 226.88 674.34 228.67 669.63 230.11 670.62 232.8 677.44 232.23 679.35 236.85 675.49 239.84 674.56 241.85 670.02 243.79 670.09 245.6 664.27 248.46 662.32 251.61 656.15 252.09 653.73 250.55 649.99 250.17 645.23 252.44 642.13 254.99 638.71 253.04 631.9 254.65 628.44 253.12 626.26 254.4 620.85 251.69 616.26 250.78 610.97 251.08 Z"/>
<path d="M 401.78 187.17 400.03 188.16 396.01 186.67 385.15 192.63 383.4 192.96 377.65 196.77 373.04 197.44 372.57 195.58 368.89 193.1 369.98 191.26 367.57 188.68 364.67 187.55 356.22 178.85 353.7 177.47 347.14 177.15 342.39 173.97 336.06 170.54 330.3 172 321.07 172.71 317.46 169.73 312.67 168.62 311.73 167.19 306.87 166.15 304.1 163.61 303.4 162.68 303.57 159.19 301.9 156.21 298.24 154.01 295.33 147.06 295.37 146.95 293.62 137.17 294.1 132.69 292.41 126.8 294.94 124.37 295.02 123.77 296.33 121.05 294.02 115.39 292.38 113.53 291.8 108.28 293.19 105.89 293.47 101.02 291.01 97.1 291.32 93.17 289.1 88.58 289 85.99 288.66 86.08 280.98 89.09 280.63 89.13 280.57 89.09 280.41 89.16 274.69 90.58 271.61 90.68 271.18 90.68 268.43 89.27 268.46 89.03 265.83 84.15 267.27 78.59 267.29 78.41 267.57 73.51 267.16 72.58 271.01 69.39 273.62 70.45 278.23 70.37 280.54 69.21 286.78 68.32 291.14 65.96 295.87 67.43 299.58 66.7 300.19 63.95 298.21 62.83 300.13 60.55 305.77 60.52 308.44 61.51 308.96 58.43 311.92 57.95 315 56.02 319.14 55.18 324.44 55.37 328.36 53.57 330.46 47.76 332.02 46.66 339.14 44.69 343.23 45.52 344.77 47.63 349.56 48.15 355.05 49.51 358.28 49.08 359.93 46.58 362.02 45.84 373.92 47.54 377.09 44.88 385.81 41.54 387.26 43.66 393.3 44.88 401.08 42.79 403.82 38.21 406.09 38.99 407.16 41.13 409.93 39.96 415 40.22 416.49 37.97 421.88 40.73 427.45 39.86 430.38 36.43 429.92 34.94 432.33 32.25 438.29 28.2 443.76 30.93 442.36 36.19 439.75 37.68 441.32 42.75 441.06 45.02 444.94 45.53 452.28 48.14 456.55 50.16 461.16 51.36 461.15 51.38 459.58 54.33 459.39 57.92 460.43 65.19 462.17 68.38 462.26 68.57 463.12 70.67 468.26 75.91 468.5 76.17 468.64 76.35 468.6 76.53 468.74 77.7 468.85 77.8 469.01 77.87 469.15 77.92 474.05 83.27 476.59 88.37 476.7 88.76 476.83 89.05 476.95 89.44 476.68 94.47 476.79 94.95 478.67 98.87 479.09 99.17 480.17 100.05 480.29 100.25 480.9 104.59 479.31 114.31 479.41 117.9 482.02 120.86 479.07 129.89 477.36 130.81 476.29 134.85 473.56 135.1 465.78 139.93 461.39 144.65 455.65 153.91 456.07 156.99 454.2 158.75 451.84 158.21 449.76 162.78 447.09 166.08 443.68 167.56 438.7 166.72 436.71 168.57 427.5 170.47 422.15 173.77 419.63 174.45 418.58 176.46 413.79 179.7 410.68 179.91 407.34 181.34 405.43 179.81 402.43 180.65 401.52 184.15 401.78 187.17 Z"/>
</g>
</svg>